<?xml version="1.0" standalone="no"?><svg xmlns="http://www.w3.org/2000/svg" viewBox="0 0 1440 320"><path fill="#FDFEF7" fill-opacity="1" d="M0,0L40,21.3C80,43,160,85,240,122.7C320,160,400,192,480,208C560,224,640,224,720,218.7C800,213,880,203,960,213.3C1040,224,1120,256,1200,229.3C1280,203,1360,117,1400,74.7L1440,32L1440,320L1400,320C1360,320,1280,320,1200,320C1120,320,1040,320,960,320C880,320,800,320,720,320C640,320,560,320,480,320C400,320,320,320,240,320C160,320,80,320,40,320L0,320Z"></path></svg>